<?xml version="1.0" encoding="UTF-8"?>
<svg id="credit-card" xmlns="http://www.w3.org/2000/svg" version="1.1" viewBox="0 0 24 24">
  <!-- Generator: Adobe Illustrator 29.1.0, SVG Export Plug-In . SVG Version: 2.1.0 Build 142)  -->
  <defs>
    <style>
      .st0 {
        fill: #fff;
      }
    </style>
  </defs>
  <path class="st0" d="M7,15h3c.6,0,1-.4,1-1s-.4-1-1-1h-3c-.6,0-1,.4-1,1s.4,1,1,1ZM19,5H5c-1.7,0-3,1.3-3,3v9c0,1.7,1.3,3,3,3h14c1.7,0,3-1.3,3-3v-9c0-1.7-1.3-3-3-3ZM20,17c0,.6-.4,1-1,1H5c-.6,0-1-.4-1-1v-6h16v6ZM20,9H4v-1c0-.6.4-1,1-1h14c.6,0,1,.4,1,1v1Z"/>
</svg>